<svg xmlns="http://www.w3.org/2000/svg" viewBox="0 0 760 400" width="760" height="400" role="img" aria-labelledby="title desc">
  <title id="title">Three doors: which situation applies to you</title>
  <desc id="desc">A person standing before three labelled doors. Door 1: you received a designation letter. Door 2: you supply an organisation that received one. Door 3: neither.</desc>

  <style>
    .frame  { fill: none; stroke: #64748b; stroke-width: 2.5; }
    .panel  { fill: #f1f5f9; }
    .panel2 { fill: #e0e7ef; }
    .knob   { fill: #64748b; }
    .lbl    { font-family: system-ui, -apple-system, "Segoe UI", Helvetica, Arial, sans-serif; font-size: 17px; font-weight: 600; fill: #1e293b; text-anchor: middle; }
    .sub    { font-family: system-ui, -apple-system, "Segoe UI", Helvetica, Arial, sans-serif; font-size: 13px; fill: #475569; text-anchor: middle; }
    .figure { fill: none; stroke: #334155; stroke-width: 3; stroke-linecap: round; stroke-linejoin: round; }
    .floor  { stroke: #cbd5e1; stroke-width: 2; }
  </style>

  <!-- floor line -->
  <line class="floor" x1="30" y1="300" x2="730" y2="300" />

  <!-- Door 1 -->
  <g>
    <rect class="panel" x="70" y="90" width="130" height="210" rx="4" />
    <rect class="frame" x="70" y="90" width="130" height="210" rx="4" />
    <rect class="panel2" x="88" y="110" width="94" height="80" rx="3" />
    <rect class="panel2" x="88" y="205" width="94" height="72" rx="3" />
    <circle class="knob" cx="184" cy="200" r="5" />
    <text class="lbl" x="135" y="337">Door 1</text>
    <text class="sub" x="135" y="358">A letter arrived.</text>
    <text class="sub" x="135" y="375">You are an NCII entity.</text>
  </g>

  <!-- Door 2 (emphasised) -->
  <g>
    <rect class="panel" x="315" y="70" width="130" height="230" rx="4" />
    <rect class="frame" x="315" y="70" width="130" height="230" rx="4" stroke="#334155" stroke-width="3.5" />
    <rect class="panel2" x="333" y="92" width="94" height="86" rx="3" />
    <rect class="panel2" x="333" y="196" width="94" height="82" rx="3" />
    <circle class="knob" cx="429" cy="188" r="5" />
    <text class="lbl" x="380" y="337">Door 2</text>
    <text class="sub" x="380" y="358">You supply an organisation</text>
    <text class="sub" x="380" y="375">that received one.</text>
  </g>

  <!-- Door 3 -->
  <g>
    <rect class="panel" x="560" y="90" width="130" height="210" rx="4" />
    <rect class="frame" x="560" y="90" width="130" height="210" rx="4" />
    <rect class="panel2" x="578" y="110" width="94" height="80" rx="3" />
    <rect class="panel2" x="578" y="205" width="94" height="72" rx="3" />
    <circle class="knob" cx="674" cy="200" r="5" />
    <text class="lbl" x="625" y="337">Door 3</text>
    <text class="sub" x="625" y="358">Neither.</text>
    <text class="sub" x="625" y="375">You are not in scope.</text>
  </g>

  <!-- person, standing between doors 1 and 2, facing the doors -->
  <g class="figure" transform="translate(248,0)">
    <circle cx="0" cy="212" r="15" />
    <line x1="0" y1="227" x2="0" y2="270" />
    <line x1="0" y1="238" x2="-16" y2="258" />
    <line x1="0" y1="238" x2="17" y2="252" />
    <line x1="0" y1="270" x2="-12" y2="300" />
    <line x1="0" y1="270" x2="12" y2="300" />
  </g>
</svg>
